<?xml version="1.0" standalone="no"?><!DOCTYPE svg PUBLIC "-//W3C//DTD SVG 1.1//EN" "http://www.w3.org/Graphics/SVG/1.1/DTD/svg11.dtd"><svg t="1589329782397" class="icon" viewBox="0 0 1024 1024" version="1.1" xmlns="http://www.w3.org/2000/svg" p-id="1129" width="48" height="48" xmlns:xlink="http://www.w3.org/1999/xlink"><defs><style type="text/css"></style></defs><path d="M111.744 935.466667A42.666667 42.666667 0 0 1 85.333333 896V213.333333a128 128 0 0 1 128-128h597.333334a128 128 0 0 1 128 128v426.666667a128 128 0 0 1-128 128H316.245333l-158.08 158.122667A41.770667 41.770667 0 0 1 128 938.666667a43.690667 43.690667 0 0 1-16.256-3.2zM170.666667 213.333333v579.669334l97.877333-97.834667A42.666667 42.666667 0 0 1 298.666667 682.666667h512a42.666667 42.666667 0 0 0 42.666666-42.666667V213.333333a42.666667 42.666667 0 0 0-42.666666-42.666666H213.333333a42.666667 42.666667 0 0 0-42.666666 42.666666z m490.666666 213.333334A64 64 0 0 1 725.333333 362.666667a64 64 0 0 1 64 64 64 64 0 0 1-64 64 64 64 0 0 1-64-64z m-213.333333 0A64 64 0 0 1 512 362.666667a64 64 0 0 1 64 64 64 64 0 0 1-64 64 64 64 0 0 1-64-64z m-213.333333 0A64 64 0 0 1 298.666667 362.666667 64 64 0 0 1 362.666667 426.666667 64 64 0 0 1 298.666667 490.666667 64 64 0 0 1 234.666667 426.666667z" p-id="1130" fill="#409436"></path></svg>