<?xml version="1.0" standalone="no"?><!DOCTYPE svg PUBLIC "-//W3C//DTD SVG 1.1//EN" "http://www.w3.org/Graphics/SVG/1.1/DTD/svg11.dtd"><svg t="1587022698866" class="icon" viewBox="0 0 1024 1024" version="1.1" xmlns="http://www.w3.org/2000/svg" p-id="2619" width="48" height="48" xmlns:xlink="http://www.w3.org/1999/xlink"><defs><style type="text/css"></style></defs><path d="M232 152h80v80h-80v200a80 80 0 0 1-80 80 80 80 0 0 1 80 80v200h80v80h-80c-42.816-10.784-80-36-80-80v-160a80 80 0 0 0-80-80H32v-80h40a80 80 0 0 0 80-80v-160a80 80 0 0 1 80-80m560 0a80 80 0 0 1 80 80v160a80 80 0 0 0 80 80H992v80h-40a80 80 0 0 0-80 80v160a80 80 0 0 1-80 80h-80v-80h80V592a80 80 0 0 1 80-80 80 80 0 0 1-80-80V232h-80v-80h80m-280 480a40 40 0 0 1 0 80 40 40 0 0 1 0-80m-160 0a40 40 0 0 1 0 80 40 40 0 0 1 0-80m320 0a40 40 0 0 1 0 80 40 40 0 0 1 0-80z" p-id="2620" fill="#409436"></path></svg>