<?xml version="1.0" standalone="no"?><!DOCTYPE svg PUBLIC "-//W3C//DTD SVG 1.1//EN" "http://www.w3.org/Graphics/SVG/1.1/DTD/svg11.dtd"><svg t="1589329962482" class="icon" viewBox="0 0 1056 1024" version="1.1" xmlns="http://www.w3.org/2000/svg" p-id="7127" width="49.5" height="48" xmlns:xlink="http://www.w3.org/1999/xlink"><defs><style type="text/css"></style></defs><path d="M48 1024h672c26.464 0 48-21.536 48-48V736c0-0.32-0.16-0.576-0.192-0.896 1.76-1.12 3.584-2.176 5.312-3.36l255.552 255.552a16 16 0 1 0 22.656-22.592l-253.216-253.216A207.328 207.328 0 0 0 864 560a207.808 207.808 0 0 0-96.192-175.104c0.032-0.32 0.192-0.576 0.192-0.896V304c0-0.544-0.256-0.992-0.288-1.504-0.064-0.736-0.256-1.376-0.416-2.08a15.616 15.616 0 0 0-2.88-6.112c-0.224-0.288-0.192-0.64-0.416-0.928l-256-288c-0.096-0.096-0.224-0.096-0.32-0.192a15.68 15.68 0 0 0-7.136-4.288c-0.608-0.192-1.152-0.256-1.792-0.352C497.824 0.384 496.96 0 496 0h-448C21.536 0 0 21.536 0 48v928c0 26.464 21.536 48 48 48zM832 560c0 97.056-78.976 176-176 176S480 657.056 480 560s78.976-176 176-176 176 78.944 176 176zM512 58.08L716.384 288H528c-7.04 0-16-13.44-16-24V58.08zM32 48a16 16 0 0 1 16-16H480v232c0 25.888 20.96 56 48 56H736v48.032A207.2 207.2 0 0 0 506.272 416H176a16 16 0 0 0 0 32h305.024a206.144 206.144 0 0 0-32.192 96H176a16 16 0 0 0 0 32h272.8a206.528 206.528 0 0 0 32.192 96H176a16 16 0 0 0 0 32h328c0.672 0 1.248-0.288 1.92-0.384a207.232 207.232 0 0 0 230.08 48.32V976a16 16 0 0 1-16 16h-672c-8.96 0-16-7.04-16-16v-928z" fill="#409436" p-id="7128"></path><path d="M176 320h192a16 16 0 0 0 0-32h-192a16 16 0 0 0 0 32zM176 832h416a16 16 0 0 0 0-32h-416a16 16 0 0 0 0 32z" fill="#409436" p-id="7129"></path></svg>