<?xml version="1.0" standalone="no"?><!DOCTYPE svg PUBLIC "-//W3C//DTD SVG 1.1//EN" "http://www.w3.org/Graphics/SVG/1.1/DTD/svg11.dtd"><svg t="1589330012955" class="icon" viewBox="0 0 1024 1024" version="1.1" xmlns="http://www.w3.org/2000/svg" p-id="7460" width="48" height="48" xmlns:xlink="http://www.w3.org/1999/xlink"><defs><style type="text/css"></style></defs><path d="M644.266667 77.226667l-120.746667 120.746666c-32.853333 33.28-32.853333 87.466667 0 120.746667l60.16 60.16-194.133333 194.133333-120.32-120.746666L208.64 512c-211.2 213.333333-59.306667 362.666667-59.306667 362.666667S298.666667 1024 512 814.506667l60.16-60.16-119.466667-119.466667 193.706667-193.706667 59.306667 59.306667c33.28 32.853333 87.466667 32.853333 120.746666 0L947.2 379.733333l-302.933333-302.506666m120.746666 361.386666L706.133333 379.733333l-61.44-61.44-59.733333-59.733333 60.16-60.16 180.48 180.48-60.586667 59.733333z" fill="#409436" p-id="7461"></path></svg>